<?xml version="1.0" standalone="no"?>
<!DOCTYPE svg PUBLIC "-//W3C//DTD SVG 20010904//EN"
 "http://www.w3.org/TR/2001/REC-SVG-20010904/DTD/svg10.dtd">
<svg version="1.0" xmlns="http://www.w3.org/2000/svg"
 width="200.000000pt" height="200.000000pt" viewBox="0 0 200.000000 200.000000"
 preserveAspectRatio="xMidYMid meet">
<metadata>
Created by potrace 1.11, written by Peter Selinger 2001-2013
</metadata>
<g transform="translate(0.000000,200.000000) scale(0.100000,-0.100000)"
fill="#000000" stroke="none">
<path d="M415 1848 c-2 -7 -6 -31 -10 -52 -19 -114 -113 -223 -224 -262 -31
-11 -33 -13 -16 -19 62 -21 101 -43 139 -81 46 -45 91 -127 101 -186 8 -42 25
-52 25 -14 0 54 72 180 127 222 20 15 62 38 92 51 36 14 48 23 33 23 -37 0
-116 46 -156 90 -46 51 -95 151 -98 203 -3 39 -6 45 -13 25z"/>
<path d="M1147 1652 c-7 -37 -43 -81 -76 -94 -24 -9 -25 -11 -6 -18 35 -13 74
-61 81 -98 l7 -37 14 40 c16 47 39 74 75 89 l27 12 -34 18 c-22 12 -43 36 -59
67 -23 47 -24 47 -29 21z"/>
<path d="M1566 1389 c-9 -53 -48 -130 -92 -179 -36 -40 -122 -89 -158 -91 -12
0 -1 -8 26 -17 103 -37 179 -118 213 -226 9 -28 19 -58 22 -66 3 -8 11 10 19
40 34 126 106 209 224 252 25 9 37 17 28 17 -29 1 -31 2 -72 23 -81 41 -139
114 -176 223 -10 29 -16 56 -13 59 4 3 2 6 -4 6 -6 0 -13 -18 -17 -41z"/>
<path d="M751 1390 c-2 -38 -45 -121 -79 -153 -16 -16 -47 -34 -67 -42 l-38
-12 37 -13 c68 -22 145 -123 146 -189 0 -28 9 -24 15 7 15 80 81 161 150 185
l40 14 -35 6 c-62 12 -126 84 -153 172 -10 35 -15 43 -16 25z"/>
<path d="M1110 840 c0 -17 -38 -63 -63 -77 -16 -9 -18 -12 -6 -13 23 0 69 -49
70 -74 0 -17 3 -15 14 10 8 18 26 41 41 53 l26 21 -31 26 c-17 14 -31 32 -31
39 0 8 -4 17 -10 20 -5 3 -10 1 -10 -5z"/>
<path d="M446 580 c-10 -54 -64 -120 -116 -144 l-48 -23 34 -12 c60 -22 127
-104 137 -169 5 -32 12 -35 15 -6 5 61 59 136 122 167 l51 25 -32 7 c-46 10
-113 81 -130 138 -16 55 -24 59 -33 17z"/>
<path d="M1071 416 c-2 -37 -49 -103 -87 -121 l-37 -17 29 -13 c39 -17 73 -55
88 -99 l13 -37 11 40 c11 37 70 101 92 101 6 0 10 5 10 10 0 6 -6 10 -14 10
-22 0 -74 60 -90 104 -8 23 -15 32 -15 22z"/>
</g>
</svg>
